<svg width="30" height="30" viewBox="0 0 30 30" fill="none" xmlns="http://www.w3.org/2000/svg">
<g clip-path="url(#clip0_1_579)">
<path d="M13.6816 0L27.9591 2.04089L29.9986 16.3199L16.7407 29.5777C16.4703 29.8481 16.1035 30 15.721 30C15.3386 30 14.9718 29.8481 14.7013 29.5777L0.422293 15.2987C0.151899 15.0282 0 14.6614 0 14.279C0 13.8965 0.151899 13.5297 0.422293 13.2593L13.6816 0ZM17.7605 12.2395C18.0284 12.5074 18.3464 12.7198 18.6964 12.8647C19.0464 13.0096 19.4216 13.0842 19.8004 13.0841C20.1792 13.084 20.5543 13.0094 20.9043 12.8643C21.2543 12.7193 21.5722 12.5067 21.8401 12.2388C22.1079 11.9709 22.3203 11.6529 22.4652 11.3028C22.6101 10.9528 22.6847 10.5777 22.6846 10.1989C22.6845 9.82005 22.6099 9.44494 22.4648 9.09498C22.3198 8.74501 22.1073 8.42704 21.8393 8.15922C21.5714 7.8914 21.2534 7.67896 20.9034 7.53406C20.5533 7.38915 20.1782 7.3146 19.7994 7.31467C19.0343 7.3148 18.3006 7.61885 17.7597 8.15994C17.2188 8.70103 16.915 9.43482 16.9152 10.1999C16.9153 10.965 17.2194 11.6987 17.7605 12.2395Z" fill="#E0BEA2"/>
</g>
<defs>
<clipPath id="clip0_1_579">
<rect width="30" height="30" fill="white"/>
</clipPath>
</defs>
</svg>
