<svg width="30" height="30" viewBox="0 0 30 30" fill="none" xmlns="http://www.w3.org/2000/svg">
<g clip-path="url(#clip0_1_583)">
<path d="M27 30H3C2.60218 30 2.22064 29.842 1.93934 29.5607C1.65804 29.2794 1.5 28.8978 1.5 28.5V1.5C1.5 1.10218 1.65804 0.720644 1.93934 0.43934C2.22064 0.158035 2.60218 0 3 0H27C27.3978 0 27.7794 0.158035 28.0607 0.43934C28.342 0.720644 28.5 1.10218 28.5 1.5V28.5C28.5 28.8978 28.342 29.2794 28.0607 29.5607C27.7794 29.842 27.3978 30 27 30ZM9 7.5V10.5H21V7.5H9ZM9 13.5V16.5H21V13.5H9ZM9 19.5V22.5H16.5V19.5H9Z" fill="#E0BEA2"/>
</g>
<defs>
<clipPath id="clip0_1_583">
<rect width="30" height="30" fill="white"/>
</clipPath>
</defs>
</svg>
