<svg width="30" height="30" viewBox="0 0 30 30" fill="none" xmlns="http://www.w3.org/2000/svg">
<g clip-path="url(#clip0_1_603)">
<path d="M30 12.3333V25.6667C30 26.0203 29.842 26.3594 29.5607 26.6095C29.2794 26.8595 28.8978 27 28.5 27H1.5C1.10218 27 0.720644 26.8595 0.43934 26.6095C0.158035 26.3594 0 26.0203 0 25.6667V12.3333H30ZM30 9.66667H0V4.33333C0 3.97971 0.158035 3.64057 0.43934 3.39052C0.720644 3.14048 1.10218 3 1.5 3H28.5C28.8978 3 29.2794 3.14048 29.5607 3.39052C29.842 3.64057 30 3.97971 30 4.33333V9.66667ZM19.5 20.3333V23H25.5V20.3333H19.5Z" fill="#E0BEA2"/>
</g>
<defs>
<clipPath id="clip0_1_603">
<rect width="30" height="30" fill="white"/>
</clipPath>
</defs>
</svg>
