<svg width="25" height="25" viewBox="0 0 25 25" fill="none" xmlns="http://www.w3.org/2000/svg">
<g clip-path="url(#clip0_1_1177)">
<path d="M18.7503 5H25.0003V7.5H22.5003V23.75C22.5003 24.0815 22.3686 24.3995 22.1342 24.6339C21.8998 24.8683 21.5818 25 21.2503 25H3.75031C3.41878 25 3.10084 24.8683 2.86642 24.6339C2.632 24.3995 2.50031 24.0815 2.50031 23.75V7.5H0.000305176V5H6.25031V1.25C6.25031 0.918479 6.382 0.600537 6.61642 0.366116C6.85084 0.131696 7.16878 0 7.50031 0H17.5003C17.8318 0 18.1498 0.131696 18.3842 0.366116C18.6186 0.600537 18.7503 0.918479 18.7503 1.25V5ZM20.0003 7.5H5.00031V22.5H20.0003V7.5ZM8.75031 11.25H11.2503V18.75H8.75031V11.25ZM13.7503 11.25H16.2503V18.75H13.7503V11.25ZM8.75031 2.5V5H16.2503V2.5H8.75031Z" fill="#E0BEA2"/>
</g>
<defs>
<clipPath id="clip0_1_1177">
<rect width="25" height="25" fill="white"/>
</clipPath>
</defs>
</svg>
